<?xml version="1.0" standalone="no"?>
<!DOCTYPE svg PUBLIC "-//W3C//DTD SVG 20010904//EN"
 "http://www.w3.org/TR/2001/REC-SVG-20010904/DTD/svg10.dtd">
<svg version="1.0" xmlns="http://www.w3.org/2000/svg"
 width="86.000000pt" height="86.000000pt" viewBox="0 0 86.000000 86.000000"
 preserveAspectRatio="xMidYMid meet">
<metadata>
Created by potrace 1.14, written by Peter Selinger 2001-2017
</metadata>
<g transform="translate(0.000000,86.000000) scale(0.100000,-0.100000)"
fill="#000000" stroke="none">
<path d="M505 744 c-32 -59 -26 -57 -100 -38 -20 5 -23 1 -155 -225 -50 -86
-179 -300 -195 -325 l-19 -28 175 4 c187 4 211 10 295 74 17 13 35 24 40 24
19 0 90 43 122 74 19 17 45 54 60 81 35 69 36 177 2 250 -36 75 -105 137 -175
159 -16 5 -25 -4 -50 -50z"/>
</g>
</svg>
